<svg width="16" height="17" viewBox="0 0 16 17" fill="none" xmlns="http://www.w3.org/2000/svg">
<path fill-rule="evenodd" clip-rule="evenodd" d="M11 5C11 6.65685 9.65683 8 7.99997 8C6.34312 8 4.99997 6.65685 4.99997 5C4.99997 3.34315 6.34312 2 7.99997 2C9.65683 2 11 3.34315 11 5ZM10.4218 9.37537C11.9593 8.52252 13 6.88279 13 5C13 2.23858 10.7614 0 7.99997 0C5.23855 0 2.99997 2.23858 2.99997 5C2.99997 6.8828 4.04064 8.52253 5.57816 9.37538C4.36896 9.7595 3.25691 10.4294 2.34315 11.3431C1.32406 12.3622 0.608314 13.6279 0.25401 15C0.0867095 15.6479 0 16.3195 0 17L2 17H8H14H16C16 16.3195 15.9133 15.6479 15.746 15C15.3917 13.6279 14.6759 12.3622 13.6569 11.3431C12.7431 10.4294 11.631 9.75949 10.4218 9.37537ZM12.2426 12.7574C12.8815 13.3962 13.3613 14.1642 13.6569 15H8L2.34314 15C2.63866 14.1642 3.11855 13.3962 3.75736 12.7574C4.88258 11.6321 6.4087 11 8 11C9.5913 11 11.1174 11.6321 12.2426 12.7574Z" fill="#333333"/>
</svg>
